<svg xmlns="http://www.w3.org/2000/svg" width="24" height="24"><rect id="backgroundrect" width="100%" height="100%" x="0" y="0" fill="none" stroke="none"/><g class="currentLayer" style=""><title>Layer 1</title><path fill="none" d="M0 0h24v24H0V0z" id="svg_1"/><path d="M12 2C8.13 2 5 5.13 5 9c0 4.17 4.42 9.92 6.24 12.11.4.48 1.13.48 1.53 0C14.58 18.92 19 13.17 19 9c0-3.87-3.13-7-7-7zm0 9.5c-1.38 0-2.5-1.12-2.5-2.5s1.12-2.5 2.5-2.5 2.5 1.12 2.5 2.5-1.12 2.5-2.5 2.5z" id="svg_2" class="selected" fill="#ffffff" fill-opacity="1"/></g></svg>